<svg xmlns="http://www.w3.org/2000/svg" width="570" height="88.673" viewBox="0 0 570 88.673">
  <g id="IndustryFusion_logo_black" data-name="IndustryFusion logo black" transform="translate(-328 -22.25)">
    <text id="IndustryFusion" transform="translate(432 86)" font-size="54" font-family="Muli-Bold, Muli" font-weight="700"><tspan x="0" y="0">IndustryFusion</tspan></text>
    <g id="IndustryFusion-hive" transform="translate(328 22.25)">
      <g id="Ebene_1" transform="translate(0 0)">
        <g id="logo">
          <path id="Pfad_387" data-name="Pfad 387" d="M-23.3,8.5Z" transform="translate(98.101 5.45)"/>
          <path id="Pfad_388" data-name="Pfad 388" d="M-23.26,8.6l-.24.237Z" transform="translate(97.821 5.588)"/>
          <path id="Pfad_389" data-name="Pfad 389" d="M-43.792,39.983h0A53.606,53.606,0,0,1-52.2,29.3v.712a7.659,7.659,0,0,0,.961,3.324,24.059,24.059,0,0,0,5.526,8.309h0a28.923,28.923,0,0,0,6.246,4.748,9.668,9.668,0,0,0,6.006,1.662h0a46.744,46.744,0,0,1-10.33-8.071h0" transform="translate(57.572 34.028)"/>
          <path id="Pfad_390" data-name="Pfad 390" d="M-35.8,37.4h0" transform="translate(80.571 44.917)"/>
          <path id="Pfad_391" data-name="Pfad 391" d="M-18.068,59.634A52.278,52.278,0,0,1-26,55.123c-.48-.237-1.2-.475-1.682-.712a45.72,45.72,0,0,1-10.571-7.122l-.721-.712-.24-.237A38.469,38.469,0,0,1-47.617,33.52,53.086,53.086,0,0,1-53.383,22.6a6.863,6.863,0,0,0-.48,2.137,16.542,16.542,0,0,0,.961,6.884,35.665,35.665,0,0,0,3.123,6.884,49.994,49.994,0,0,0,8.408,10.683h0a48.284,48.284,0,0,0,10.33,8.071,12.994,12.994,0,0,0,3.123,1.662c4.565,2.137,8.889,3.086,12.252,2.137h0c.24,0,.48-.237.721-.237a27.15,27.15,0,0,1-3.123-1.187" transform="translate(55.151 24.823)"/>
          <path id="Pfad_392" data-name="Pfad 392" d="M2.107,67.326c0,.237-.24.237-.24.475a10.232,10.232,0,0,1-4.084,2.374,17.093,17.093,0,0,1-6.967.237h-.24a40.764,40.764,0,0,1-7.688-2.137A55.613,55.613,0,0,1-34.169,56.643l-.24-.237h0C-41.617,49.047-46.422,40.975-48.1,34.091a18.4,18.4,0,0,1-.48-8.071,10.438,10.438,0,0,1,2.643-5.7.842.842,0,0,1,.48-.237,34.479,34.479,0,0,1-1.2-6.884,10.867,10.867,0,0,0-4.084,2.611,13.237,13.237,0,0,0-3.6,7.834,28.194,28.194,0,0,0,.961,9.971,9.852,9.852,0,0,0,.961,2.374,47.641,47.641,0,0,0,5.766,10.92,86.719,86.719,0,0,0,9.369,11.632l.48.475.721.712A79.448,79.448,0,0,0-25.04,68.75a85.348,85.348,0,0,0,7.928,4.51c1.2.475,2.162.95,3.123,1.424C-8.7,76.584-3.659,77.3.665,76.347h0a12.324,12.324,0,0,0,5.766-3.086,11.835,11.835,0,0,0,2.643-4.036,44.032,44.032,0,0,0-6.967-1.9" transform="translate(54.436 11.908)"/>
          <path id="Pfad_393" data-name="Pfad 393" d="M22.178,61.542a4.5,4.5,0,0,1-1.682.475h0a18.754,18.754,0,0,1-3.6.475,12.942,12.942,0,0,1-3.363,7.6,10.418,10.418,0,0,1-5.285,2.849c-4.565,1.424-10.811.475-17.3-2.137A62.558,62.558,0,0,1-27.311,58.693a14.412,14.412,0,0,1-1.922-1.9l-.961-.95c-7.688-8.071-12.973-16.855-14.895-24.689a22.092,22.092,0,0,1-.721-9.733,11.072,11.072,0,0,1,3.363-6.884,10.418,10.418,0,0,1,5.285-2.849,10.684,10.684,0,0,1,2.4-.475V9.552a29.24,29.24,0,0,1,.961-3.8,19.983,19.983,0,0,0-6.486.475,18.91,18.91,0,0,0-6.727,3.8,14.861,14.861,0,0,0-4.084,9.021,11.392,11.392,0,0,0,0,4.036,31.752,31.752,0,0,0,1.2,6.884v.475C-47.251,39.7-41,49.909-31.635,59.168c7.207,7.122,14.895,12.582,22.342,15.668A34.369,34.369,0,0,0-2.326,77.21,35.658,35.658,0,0,0,4.641,78.4a19.983,19.983,0,0,0,6.486-.475h0a13.482,13.482,0,0,0,6.727-3.8c3.363-2.849,4.565-7.359,4.324-12.582" transform="translate(58.869 1.549)"/>
          <path id="Pfad_394" data-name="Pfad 394" d="M19.4,45.536c-.24-.712-.48-1.662-.721-2.374A9.789,9.789,0,0,1,17,45.773,5.679,5.679,0,0,1,14.839,47.2a20.772,20.772,0,0,1,0,5.46,10.438,10.438,0,0,1-2.643,5.7,9.641,9.641,0,0,1-4.324,2.374c-3.844,1.187-9.129.475-14.655-1.9a55.794,55.794,0,0,1-16.1-10.683l-1.2-1.187a3.282,3.282,0,0,1-.721-.95c-6.727-6.884-11.291-14.718-12.973-21.365a18.4,18.4,0,0,1-.48-8.071,8.707,8.707,0,0,1,2.4-5.7A9.641,9.641,0,0,1-31.527,8.5a17.246,17.246,0,0,1,6.967-.237,13.184,13.184,0,0,1,1.441-1.9A6.8,6.8,0,0,1-20.476,4.7c-5.285-1.9-10.09-2.611-14.414-1.662A14.481,14.481,0,0,0-40.9,6.128a11.835,11.835,0,0,0-2.643,4.036,17.611,17.611,0,0,0-.961,3.8v1.662a24.033,24.033,0,0,0,1.2,8.309c2.4,8.071,7.928,17.33,16.336,25.4a70.824,70.824,0,0,0,19.7,14.006c5.045,2.374,10.09,3.561,14.174,3.324a18.754,18.754,0,0,0,3.6-.475h0a15.455,15.455,0,0,0,1.682-.475A9.281,9.281,0,0,0,16.28,63.1a13.237,13.237,0,0,0,3.6-7.834,19.031,19.031,0,0,0-.48-9.733" transform="translate(68.37 -2.624)"/>
          <path id="Pfad_395" data-name="Pfad 395" d="M7.4,32.911a34.044,34.044,0,0,0-4.8-9.258c.24.712.48,1.662.721,2.374A3.369,3.369,0,0,1,2.6,28.638a5.264,5.264,0,0,1-1.2.712c.48.95.721,1.9,1.2,3.086a11.788,11.788,0,0,1,.48,4.985,6.3,6.3,0,0,1-1.682,3.324,6.417,6.417,0,0,1-2.4,1.424c-2.162.712-5.766.237-9.369-1.424a36.965,36.965,0,0,1-11.291-7.834c-4.8-4.748-7.928-9.971-9.129-14.481a12.532,12.532,0,0,1-.48-5.223A6.3,6.3,0,0,1-29.6,9.884a6.417,6.417,0,0,1,2.4-1.424c2.162-.712,5.525-.237,9.129,1.187.24-.475.48-.712.721-1.187a2.747,2.747,0,0,1,1.922-.712,8.565,8.565,0,0,1,3.363.712,41.214,41.214,0,0,0-5.525-3.086c-4.565-1.9-8.889-2.849-12.492-2.137a3.443,3.443,0,0,0-1.441.475,9.936,9.936,0,0,0-2.643,1.662,7.788,7.788,0,0,0-1.441,1.9,8.723,8.723,0,0,0-.961,3.324,16.541,16.541,0,0,0,.961,6.884c1.682,5.935,5.525,12.107,11.291,17.8l.24.237.721.475a49.618,49.618,0,0,0,12.973,9.258c4.565,2.137,8.889,3.086,12.252,2.137h0A16.679,16.679,0,0,0,3.8,46.68l2.162-1.424A6.138,6.138,0,0,0,7.64,42.644,6.261,6.261,0,0,0,8.361,39.8,22.7,22.7,0,0,0,7.4,32.911" transform="translate(79.413 -2.106)"/>
          <path id="Pfad_396" data-name="Pfad 396" d="M-7.238,23.242a3.977,3.977,0,0,0-.721-2.374l-.24-.712a32.191,32.191,0,0,0-6.006-8.071A40.959,40.959,0,0,0-20.451,7.1a11.276,11.276,0,0,0-2.4-1.187A7.751,7.751,0,0,0-26.217,5.2a2.747,2.747,0,0,0-1.922.712A5.178,5.178,0,0,0-28.86,7.1a2.979,2.979,0,0,0-.24,1.424,6.676,6.676,0,0,0,.961,3.086,32.191,32.191,0,0,0,6.006,8.071h0l.48.475a37.051,37.051,0,0,0,5.766,4.51,11.809,11.809,0,0,0,5.766,1.9h0a.889.889,0,0,0,.721-.237c.48,0,.721-.237,1.2-.712a2.737,2.737,0,0,0,.961-2.374m-7.928-10.208Zm3.6,8.309a.842.842,0,0,1-.48.237,3.858,3.858,0,0,1-2.883-.95,31.942,31.942,0,0,1-4.565-3.324,19.156,19.156,0,0,1-4.084-5.7,3.482,3.482,0,0,1-.24-1.662.866.866,0,0,1,.24-.712A.842.842,0,0,1-23.094,9a4.654,4.654,0,0,1,2.883.95,21.492,21.492,0,0,1,4.565,3.561l.24-.237h0l-.24.237a19.156,19.156,0,0,1,4.084,5.7,3.482,3.482,0,0,1,.24,1.662c0,.237,0,.475-.24.475" transform="translate(89.967 0.916)"/>
        </g>
      </g>
    </g>
  </g>
</svg>
