<svg height='100px' width='100px'  fill="#000000" xmlns="http://www.w3.org/2000/svg" viewBox="0 0 83.64 84.54" x="0px" y="0px"><title>Asset 2</title><g data-name="Layer 2"><g data-name="Layer 1"><path d="M46.51.1A40,40,0,0,0,3.73,37.32a2.4,2.4,0,0,0,2.39,2.55h0a2.63,2.63,0,0,0,2.61-2.46A35,35,0,1,1,46.25,74.9a2.72,2.72,0,0,0-2.53,2.69h0a2.34,2.34,0,0,0,2.48,2.33A40,40,0,0,0,46.51.1Z"></path><path d="M56.43,12.65c-21.24-8.89-41.62,5.8-42.74,25.63a1.48,1.48,0,0,0,1.47,1.59H17A1.72,1.72,0,0,0,18.7,38.3c1.13-16.8,18.84-29,36.9-20.51A21.57,21.57,0,0,1,65.85,28C74.53,46.41,61.7,64.43,44.45,65a.76.76,0,0,0-.73.75V68.2A1.59,1.59,0,0,0,45.35,70c19.88-1.12,34.59-21.59,25.57-42.88A27.16,27.16,0,0,0,56.43,12.65Z"></path><path d="M39.25,39.93,14.88,46A4.06,4.06,0,0,0,13,52.74l5.62,5.54L1.51,75.64A5.23,5.23,0,1,0,9,83L26.11,65.57l5.62,5.55a4,4,0,0,0,6.76-2l5.63-24.4a4,4,0,0,0-4.87-4.8Z"></path></g></g></svg>
