<svg height='18px' width='18px'  fill="#000000" xmlns="http://www.w3.org/2000/svg" xmlns:xlink="http://www.w3.org/1999/xlink" version="1.1" x="0px" y="0px" viewBox="0 0 64 64" enable-background="new 0 0 64 64" xml:space="preserve"><g><g><g><path d="M31.321,38.904c-0.006,0-0.012,0-0.018,0c-1.104-0.01-1.992-0.913-1.982-2.018l0.009-1c0-0.057,0.003-0.115,0.009-0.172     c0.277-2.909,2.208-4.692,3.761-6.125c0.526-0.486,1.024-0.945,1.448-1.424c0.517-0.583,1.267-1.777,0.478-3.218     c-0.909-1.664-3.129-2.135-4.854-1.74c-1.802,0.412-2.466,1.951-2.702,2.831c-0.286,1.067-1.383,1.7-2.45,1.415     c-1.067-0.286-1.7-1.383-1.415-2.45c0.797-2.977,2.865-5.052,5.673-5.695c3.779-0.863,7.585,0.664,9.256,3.719     c1.391,2.544,1.01,5.529-0.995,7.791c-0.557,0.628-1.152,1.178-1.728,1.709c-1.435,1.325-2.332,2.211-2.484,3.49l-0.008,0.903     C33.311,38.021,32.417,38.904,31.321,38.904z"></path></g></g><g><g><path d="M31.32,44.9c-0.52,0-1.04-0.21-1.41-0.58c-0.38-0.37-0.59-0.89-0.59-1.42c0-0.52,0.21-1.04,0.59-1.41     c0.74-0.74,2.08-0.74,2.82,0c0.38,0.37,0.59,0.89,0.59,1.41c0,0.53-0.21,1.04-0.58,1.42C32.36,44.69,31.85,44.9,31.32,44.9z"></path></g></g><g><g><path d="M31.923,57.997C31.923,57.997,31.923,57.997,31.923,57.997c-2.275,0-4.53-0.296-6.703-0.881     C15.856,54.597,8.524,46.84,6.541,37.353C4.52,27.688,8.25,17.528,16.045,11.469c4.506-3.503,10.189-5.433,16.003-5.433     c4.025,0,8.022,0.936,11.56,2.705c8.737,4.371,14.382,13.503,14.382,23.266c0,7.966-3.759,15.644-10.055,20.538     C43.413,56.061,37.726,57.997,31.923,57.997z M32.049,10.036c-4.929,0-9.741,1.63-13.548,4.591     c-6.597,5.128-9.755,13.727-8.044,21.907c1.678,8.025,7.881,14.588,15.803,16.719c1.834,0.493,3.74,0.744,5.663,0.744     c0,0,0.001,0,0.001,0c4.918,0,9.732-1.637,13.557-4.61c5.329-4.142,8.51-10.639,8.51-17.38c0-8.261-4.777-15.989-12.171-19.688     C38.834,10.826,35.456,10.036,32.049,10.036z"></path></g></g></g></svg>
