<?xml version="1.0" encoding="utf-8"?>
<!-- Generator: Adobe Illustrator 24.1.0, SVG Export Plug-In . SVG Version: 6.00 Build 0)  -->
<svg version="1.1" id="Ebene_1" xmlns="http://www.w3.org/2000/svg" xmlns:xlink="http://www.w3.org/1999/xlink" x="0px" y="0px"
	 width="38px" height="38px" viewBox="0 0 38 38" style="enable-background:new 0 0 38 38;" xml:space="preserve">
<g>
	<g id="logo_1_">
		<path d="M31.6,6.2L31.6,6.2L31.6,6.2L31.6,6.2L31.6,6.2z"/>
		<path d="M31.5,6.3l-0.1,0.1L31.5,6.3z"/>
		<path d="M6.2,31.5L6.2,31.5c-1.3-1.3-2.5-2.8-3.5-4.5c0,0.1,0,0.2,0,0.3c0,0.5,0.2,1,0.4,1.4c0.5,1.3,1.3,2.5,2.3,3.5l0,0l0,0
			c0.8,0.8,1.7,1.5,2.6,2c0.8,0.5,1.7,0.8,2.5,0.7l0,0C9,34,7.5,32.9,6.2,31.5L6.2,31.5"/>
		<path d="M19.1,35L19.1,35C19.2,34.9,19.2,34.9,19.1,35C19.2,34.9,19.2,34.9,19.1,35"/>
		<path d="M15.9,35.9c-1.1-0.5-2.3-1.2-3.3-1.9c-0.2-0.1-0.5-0.2-0.7-0.3c-1.6-0.8-3.1-1.8-4.4-3c-0.1-0.1-0.2-0.2-0.3-0.3l-0.1-0.1
			c-1.5-1.5-2.7-3.4-3.5-5.4c-1-1.5-1.8-3-2.4-4.6C1.1,20.6,1,20.9,1,21.2c-0.1,1,0.1,2,0.4,2.9c0.3,1,0.8,2,1.3,2.9
			c0.9,1.6,2.1,3.1,3.5,4.5l0,0l0,0c1.3,1.3,2.7,2.5,4.3,3.4c0.4,0.3,0.8,0.5,1.3,0.7c1.9,0.9,3.7,1.3,5.1,0.9l0,0
			c0.1,0,0.2-0.1,0.3-0.1C16.8,36.3,16.4,36.1,15.9,35.9"/>
		<path d="M24,33.7c0,0.1-0.1,0.1-0.1,0.2c-0.5,0.5-1.1,0.8-1.7,1c-0.9,0.2-1.9,0.3-2.9,0.1h-0.1c-1.1-0.2-2.2-0.5-3.2-0.9
			c-2.6-1.2-5.1-2.8-7.1-4.9l-0.1-0.1l0,0c-3-3.1-5-6.5-5.7-9.4c-0.3-1.1-0.4-2.3-0.2-3.4C3,15.4,3.4,14.6,4,13.9
			c0,0,0.1-0.1,0.2-0.1c-0.3-0.9-0.4-2-0.5-2.9C3.1,11.1,2.5,11.5,2,12c-0.8,0.9-1.4,2-1.5,3.3c-0.1,1.4,0,2.8,0.4,4.2
			c0.1,0.3,0.2,0.7,0.4,1c0.6,1.6,1.4,3.2,2.4,4.6c1.1,1.7,2.5,3.4,3.9,4.9l0.2,0.2c0.1,0.1,0.2,0.2,0.3,0.3c1.4,1.4,3,2.7,4.6,3.8
			c1,0.7,2.2,1.3,3.3,1.9c0.5,0.2,0.9,0.4,1.3,0.6c2.2,0.8,4.3,1.1,6.1,0.7l0,0c0.9-0.2,1.8-0.7,2.4-1.3c0.5-0.5,0.8-1,1.1-1.7
			C25.9,34.1,24.9,33.9,24,33.7"/>
		<path d="M34.2,26.9c-0.2,0.1-0.5,0.2-0.7,0.2l0,0c-0.5,0.1-1,0.2-1.5,0.2c-0.1,1.2-0.6,2.3-1.4,3.2c-0.6,0.6-1.3,1-2.2,1.2
			c-1.9,0.6-4.5,0.2-7.2-0.9c-2.8-1.2-5.4-3-7.6-5.1c-0.3-0.2-0.5-0.5-0.8-0.8c-0.1-0.1-0.3-0.3-0.4-0.4C9.2,21.1,7,17.4,6.2,14.1
			c-0.4-1.3-0.5-2.7-0.3-4.1C6,8.9,6.5,7.9,7.3,7.1c0.6-0.6,1.3-1,2.2-1.2c0.4-0.1,0.7-0.2,1-0.2c0-0.2,0-0.5,0-0.7
			c0.1-0.5,0.2-1,0.4-1.6c-0.9-0.1-1.8,0-2.7,0.2c-1,0.3-2,0.9-2.8,1.6C4.4,6.3,3.8,7.6,3.7,9c-0.1,0.6-0.1,1.1,0,1.7
			c0.1,1,0.2,2,0.5,2.9c0,0.1,0,0.1,0,0.2c1.1,3.9,3.7,8.2,7.6,12.1c3,3,6.2,5.3,9.3,6.6c0.9,0.4,1.9,0.8,2.9,1
			c0.9,0.3,2,0.4,2.9,0.5s1.8,0,2.7-0.2l0,0c1.1-0.3,2.1-0.8,2.8-1.6C33.8,31,34.3,29.1,34.2,26.9"/>
		<path d="M37,18.4c-0.1-0.3-0.2-0.7-0.3-1c-0.2,0.4-0.4,0.8-0.7,1.1c-0.3,0.3-0.6,0.5-0.9,0.6c0.1,0.8,0.1,1.5,0,2.3
			c-0.1,0.9-0.5,1.7-1.1,2.4c-0.5,0.5-1.1,0.8-1.8,1c-1.6,0.5-3.8,0.2-6.1-0.8c-2.5-1.1-4.7-2.6-6.7-4.5c-0.2-0.2-0.3-0.3-0.5-0.5
			c-0.1-0.1-0.2-0.2-0.3-0.4c-2.8-2.9-4.7-6.2-5.4-9c-0.3-1.1-0.4-2.3-0.2-3.4c0-0.9,0.4-1.7,1-2.4c0.5-0.5,1.1-0.8,1.8-1
			c0.9-0.2,2-0.3,2.9-0.1c0.2-0.3,0.4-0.6,0.6-0.8c0.4-0.4,0.8-0.6,1.1-0.7c-2.2-0.8-4.2-1.1-6-0.7c-0.9,0.2-1.8,0.7-2.5,1.3
			c-0.5,0.5-0.8,1-1.1,1.7c-0.2,0.5-0.3,1-0.4,1.6c0,0.2,0,0.5,0,0.7c0,1.2,0.1,2.4,0.5,3.5c1,3.4,3.3,7.3,6.8,10.7
			c2.4,2.5,5.2,4.4,8.2,5.9c2.1,1,4.2,1.5,5.9,1.4c0.5,0,1-0.1,1.5-0.2l0,0c0.3-0.1,0.5-0.1,0.7-0.2c0.7-0.2,1.2-0.6,1.7-1.1
			c0.8-0.9,1.4-2,1.5-3.3C37.5,21.1,37.5,19.7,37,18.4"/>
		<path d="M36.6,13.3c-0.5-1.4-1.1-2.7-2-3.9c0.1,0.3,0.2,0.7,0.3,1c0.1,0.4-0.1,0.8-0.3,1.1c-0.1,0.1-0.3,0.2-0.5,0.3
			c0.2,0.4,0.3,0.8,0.5,1.3c0.2,0.7,0.3,1.4,0.2,2.1c-0.1,0.5-0.3,1-0.7,1.4c-0.3,0.3-0.7,0.5-1,0.6c-0.9,0.3-2.4,0.1-3.9-0.6
			c-1.8-0.8-3.3-1.9-4.7-3.3c-2-2-3.3-4.2-3.8-6.1c-0.2-0.7-0.3-1.4-0.2-2.2c0.1-0.5,0.3-1,0.7-1.4c0.3-0.3,0.7-0.5,1-0.6
			c0.9-0.3,2.3-0.1,3.8,0.5c0.1-0.2,0.2-0.3,0.3-0.5c0.2-0.2,0.5-0.3,0.8-0.3c0.5,0,0.9,0.1,1.4,0.3c-0.7-0.5-1.5-0.9-2.3-1.3
			c-1.9-0.8-3.7-1.2-5.2-0.9c-0.2,0-0.4,0.1-0.6,0.2c-0.4,0.2-0.8,0.4-1.1,0.7s-0.5,0.6-0.6,0.8c-0.2,0.5-0.4,0.9-0.4,1.4
			c-0.1,1,0.1,2,0.4,2.9c0.7,2.5,2.3,5.1,4.7,7.5l0.1,0.1l0.3,0.2c1.6,1.6,3.4,2.9,5.4,3.9c1.9,0.9,3.7,1.3,5.1,0.9l0,0
			c0.3-0.1,0.6-0.2,0.8-0.3c0.3-0.2,0.6-0.4,0.9-0.6c0.3-0.3,0.6-0.7,0.7-1.1C37,17,37,16.6,37,16.2C37,15.2,37,14.3,36.6,13.3"/>
		<path d="M35,10.5c0-0.4-0.1-0.7-0.3-1l-0.1-0.3C34,8,33,6.8,32,5.8c-0.8-0.8-1.7-1.5-2.6-2.1c-0.3-0.2-0.7-0.4-1-0.5
			C28,3,27.5,2.9,27,2.9c-0.3,0-0.6,0.1-0.8,0.3C26.1,3.3,26,3.5,26,3.7c-0.1,0.2-0.1,0.4-0.1,0.6c0,0.5,0.2,0.9,0.4,1.3
			C26.9,6.8,27.8,8,28.8,9l0,0c0.1,0.1,0.1,0.1,0.2,0.2c0.7,0.7,1.5,1.3,2.4,1.9c0.8,0.5,1.7,0.8,2.4,0.8l0,0c0.1,0,0.2,0,0.3-0.1
			c0.2,0,0.3-0.1,0.5-0.3C34.8,11.3,35,10.9,35,10.5 M31.6,6.2L31.6,6.2L31.6,6.2L31.6,6.2L31.6,6.2z M33.1,9.7c0,0-0.1,0.1-0.2,0.1
			c-0.5,0-0.9-0.1-1.2-0.4C31,9,30.4,8.5,29.8,8c-0.7-0.7-1.3-1.5-1.7-2.4C28,5.4,28,5.2,28,4.9c0-0.1,0-0.2,0.1-0.3
			c0,0,0.1-0.1,0.2-0.1c0.4,0,0.8,0.1,1.2,0.4c0.7,0.4,1.3,0.9,1.9,1.5l0.1-0.1l0,0l-0.1,0.1c0.7,0.7,1.3,1.5,1.7,2.4
			c0.1,0.2,0.1,0.4,0.1,0.7C33.2,9.6,33.2,9.7,33.1,9.7"/>
	</g>
</g>
</svg>
