<svg height='100px' width='100px'  fill="#000000" xmlns="http://www.w3.org/2000/svg" xmlns:xlink="http://www.w3.org/1999/xlink" version="1.1" x="0px" y="0px" viewBox="0 0 60 60" style="enable-background:new 0 0 60 60;" xml:space="preserve"><path d="M17.24,29.36c0.14,0,0.28-0.03,0.42-0.04l8.09,10.85c-0.01,0.11-0.02,0.22-0.02,0.34v4.16h-9.69  c-0.45,0-0.82,0.37-0.82,0.82v4.12c0,0.45,0.37,0.82,0.82,0.82h30.44c0.45,0,0.82-0.37,0.82-0.82v-4.12c0-0.45-0.37-0.82-0.82-0.82  H36.8V40.5c0-2.98-2.36-5.41-5.31-5.52l-9.41-9.46c0.05-0.21,0.07-0.43,0.1-0.65l10.15-7.42c0.41,0.14,0.83,0.23,1.28,0.23  c0.38,0,0.73-0.07,1.08-0.16l5.75,5.11l-0.26,2.09c-0.05,0.4,0.2,0.78,0.59,0.89l3.27,0.94c0.08,0.02,0.15,0.03,0.23,0.03  c0.35,0,0.68-0.23,0.78-0.59c0.12-0.43-0.13-0.89-0.56-1.01l-2.59-0.74l0.2-1.57l1.35-1.49l2.03-0.25l0.69,2.11  c0.11,0.34,0.43,0.56,0.78,0.56c0.08,0,0.17-0.01,0.26-0.04c0.43-0.14,0.66-0.6,0.52-1.03l-0.9-2.75c-0.12-0.37-0.49-0.6-0.87-0.56  l-2.62,0.32l-5.71-5.22c0.04-0.22,0.07-0.45,0.07-0.68c0-2.23-1.82-4.05-4.05-4.05c-2.11,0-3.84,1.63-4.01,3.7l-10.85,6.36  c-0.48-0.15-0.98-0.26-1.51-0.26c-2.75,0-4.99,2.24-4.99,4.99S14.49,29.36,17.24,29.36z M45.67,48.79H16.87V46.3h9.69h9.43h9.69  V48.79z M35.17,40.5v4.16h-7.8V40.5c0-2.15,1.75-3.9,3.9-3.9S35.17,38.35,35.17,40.5z M29.48,35.27c-1.41,0.49-2.56,1.53-3.2,2.86  l-6.91-9.27c0.82-0.39,1.52-0.98,2.02-1.73L29.48,35.27z M41.88,20.45l-0.64,0.71l-5.01-4.46c0.27-0.23,0.51-0.48,0.71-0.77  L41.88,20.45z M33.61,11.21c1.33,0,2.42,1.08,2.42,2.42s-1.08,2.42-2.42,2.42c-1.33,0-2.42-1.08-2.42-2.42S32.28,11.21,33.61,11.21z   M29.83,15.04c0.21,0.57,0.55,1.08,0.98,1.5l-8.8,6.43c-0.28-0.96-0.84-1.79-1.59-2.42L29.83,15.04z M17.24,21.02  c1.85,0,3.35,1.5,3.35,3.35s-1.5,3.35-3.35,3.35s-3.35-1.5-3.35-3.35S15.4,21.02,17.24,21.02z"></path></svg>