<svg height='100px' width='100px' fill="currentColor" xmlns="http://www.w3.org/2000/svg" version="1.1" viewBox="0 0 1024 1024" x="0px" y="0px"><title>speech-bubble-12</title><path d="M361 464.6c-26.1 0-47.3 21.2-47.3 47.3s21.2 47.3 47.3 47.3c26.1 0 47.3-21.2 47.3-47.3s-21.2-47.3-47.3-47.3z"></path><path d="M511.9 464.6c-26.1 0-47.3 21.2-47.3 47.3s21.2 47.3 47.3 47.3c26.1 0 47.3-21.2 47.3-47.3s-21.2-47.3-47.3-47.3z"></path><path d="M662.8 464.6c-26.1 0-47.3 21.2-47.3 47.3s21.2 47.3 47.3 47.3 47.3-21.2 47.3-47.3c0-26.1-21.2-47.3-47.3-47.3z"></path><path d="M512.1 76.4c-0.1 0-0.1 0-0.2 0-270.7 0.1-490.9 195.4-490.9 435.5 0 91.2 33 181.4 93.1 255.3-11.4 21.3-26.8 38.3-45.9 50.8-18.8 12.2-27.8 34.3-23 56.2 4.8 21.6 22.3 37.6 44.3 40.8 15.2 2.2 31.2 3.3 47.5 3.3 47.5 0 91.2-9.6 130.2-28.5 74.3 37.9 158.6 57.9 244.7 57.9 270.8 0 491.1-195.4 491.1-435.5 0-240.4-220.2-435.8-490.9-435.8zM512.1 866.1c-80.1 0-157.7-20.1-224.5-58.2-6.1-3.5-13.1-5.3-20.2-5.3-7.2 0-14.4 1.9-20.7 5.6-0.1 0-0.2 0.1-0.2 0.1-23.2 14-50.2 22.9-79.3 26.5 13.4-17.9 24.4-38.2 32.8-60.7 5.3-14.1 2-30.5-8.2-41.7 0 0-0.1-0.1-0.1-0.1-58.5-63.1-89.4-139.3-89.4-220.4 0-195.3 183.8-354.2 409.8-354.2s409.8 158.9 409.8 354.2c0 195.3-183.8 354.2-409.8 354.2z"></path></svg>
