<?xml version="1.0" encoding="UTF-8"?>
<svg width="700pt" height="700pt" version="1.1" viewBox="0 0 700 700" xmlns="http://www.w3.org/2000/svg">
 <g>
  <path d="m165.2 133c0-40.602-32.898-74.199-74.199-74.199s-73.5 33.598-73.5 74.199c0 34.301 23.102 62.301 54.602 70.699v74.898c-31.5 9.1016-54.602 37.102-54.602 71.402s23.102 62.301 54.602 70.699v74.898c-31.5 9.1016-54.602 37.102-54.602 71.402 0 40.602 32.898 74.199 74.199 74.199s73.5-33.598 73.5-74.199c0-34.301-23.102-62.301-54.602-70.699l0.003906-75.602c31.5-8.3984 54.602-37.102 54.602-70.699 0-33.602-23.102-62.301-54.602-70.699v-75.602c31.5-8.3984 54.598-36.398 54.598-70.699zm-109.2 0c0-19.602 16.102-35 35-35s35 16.102 35 35-16.102 35-35 35-35-15.398-35-35zm70.699 434c0 19.602-16.102 35-35 35-18.898 0-35-16.102-35-35 0-19.602 16.102-35 35-35 18.902 0 35 15.398 35 35zm0-217c0 19.602-16.102 35-35 35-18.898 0-35-16.102-35-35s16.102-35 35-35c18.902 0 35 15.398 35 35z"/>
  <path d="m242.2 152.6h270.2c10.5 0 19.602-8.3984 19.602-19.602 0-11.199-8.3984-19.602-19.602-19.602h-270.2c-10.5 0-19.602 8.3984-19.602 19.602 0.003906 11.199 9.1016 19.602 19.602 19.602z"/>
  <path d="m242.2 258.3h151.9c10.5 0 19.602-8.3984 19.602-19.602 0-11.199-8.3984-19.602-19.602-19.602l-151.9 0.003906c-10.5 0-19.602 8.3984-19.602 19.602 0.003906 11.195 9.1016 19.598 19.602 19.598z"/>
  <path d="m242.2 478.1h151.9c10.5 0 19.602-8.3984 19.602-19.602 0-10.5-8.3984-19.602-19.602-19.602h-151.9c-10.5 0-19.602 8.3984-19.602 19.602 0.70312 10.5 9.1016 19.602 19.602 19.602z"/>
  <path d="m242.2 369.6h112c10.5 0 19.602-8.3984 19.602-19.602 0-11.199-8.3984-19.602-19.602-19.602h-112c-10.5 0-19.602 8.3984-19.602 19.602 0.003906 11.199 9.1016 19.602 19.602 19.602z"/>
  <path d="m512.4 547.4h-270.2c-10.5 0-19.602 8.3984-19.602 19.602 0 10.5 8.3984 19.602 19.602 19.602h270.2c10.5 0 19.602-8.3984 19.602-19.602 0-10.5-8.3984-19.602-19.602-19.602z"/>
  <path d="m551.6 219.1c-72.102 0-130.9 58.801-130.9 130.9 0 72.102 58.801 130.9 130.9 130.9 72.098 0 130.9-58.797 130.9-130.9s-58.801-130.9-130.9-130.9zm0 222.6c-50.398 0-91.699-41.301-91.699-91.699s41.301-91.699 91.699-91.699c50.398 0 92.398 41.301 92.398 91.699s-41.301 91.699-92.398 91.699z"/>
  <path d="m590.8 332.5h-21.699v-35.699c0-9.8008-7.6992-17.5-17.5-17.5-9.8008 0-17.5 7.6992-17.5 17.5v53.199c0 9.8008 7.6992 17.5 17.5 17.5h39.199c9.8008 0 17.5-7.6992 17.5-17.5s-7.6992-17.5-17.5-17.5z"/>
 </g>
</svg>
