<svg height='100px' width='100px'  fill="#000000" xmlns="http://www.w3.org/2000/svg" data-name="Layer 1" viewBox="0 0 100 100" x="0px" y="0px"><title>Artboard 52</title><circle cx="26" cy="35.99" r="3" transform="matrix(0.5, -0.87, 0.87, 0.5, -18.17, 40.51)"></circle><circle cx="35.98" cy="26" r="3" transform="translate(-8.18 21.48) rotate(-30)"></circle><path d="M45,34V48a7,7,0,0,0,7,7H64V49H52a1,1,0,0,1-1-1V34Z"></path><path d="M50,19H47v6h3A25,25,0,1,1,25,50V47H19v3A31,31,0,1,0,50,19Z"></path></svg>